[Header]
FileType HTR
DataType HTRS
FileVersion 1
NumSegments 64
NumFrames 4
DataFrameRate 30
EulerRotationOrder ZYX
CalibrationUnits mm
RotationUnits Degrees
GlobalAxisofGravity Y
BoneLengthAxis Y
ScaleFactor 1.0
[SegmentNames&Hierarchy]
Hips	GLOBAL
Spine	Hips
Spine1	Spine
Spine2	Spine1
Neck	Spine2
Head	Neck
LeftEye	Head
RightEye	Head
LeftShoulder	Spine2
LeftArm	LeftShoulder
LeftForeArm	LeftArm
LeftHand	LeftForeArm
LeftHandThumb1	LeftHand
LeftHandThumb2	LeftHandThumb1
LeftHandThumb3	LeftHandThumb2
LeftHandThumb4	LeftHandThumb3
LeftHandIndex1	LeftHand
LeftHandIndex2	LeftHandIndex1
LeftHandIndex3	LeftHandIndex2
LeftHandIndex4	LeftHandIndex3
LeftHandMiddle1	LeftHand
LeftHandMiddle2	LeftHandMiddle1
LeftHandMiddle3	LeftHandMiddle2
LeftHandMiddle4	LeftHandMiddle3
LeftHandRing1	LeftHand
LeftHandRing2	LeftHandRing1
LeftHandRing3	LeftHandRing2
LeftHandRing4	LeftHandRing3
LeftHandPinky1	LeftHand
LeftHandPinky2	LeftHandPinky1
LeftHandPinky3	LeftHandPinky2
LeftHandPinky4	LeftHandPinky3
RightShoulder	Spine2
RightArm	RightShoulder
RightForeArm	RightArm
RightHand	RightForeArm
RightHandPinky1	RightHand
RightHandPinky2	RightHandPinky1
RightHandPinky3	RightHandPinky2
RightHandPinky4	RightHandPinky3
RightHandRing1	RightHand
RightHandRing2	RightHandRing1
RightHandRing3	RightHandRing2
RightHandRing4	RightHandRing3
RightHandMiddle1	RightHand
RightHandMiddle2	RightHandMiddle1
RightHandMiddle3	RightHandMiddle2
RightHandMiddle4	RightHandMiddle3
RightHandIndex1	RightHand
RightHandIndex2	RightHandIndex1
RightHandIndex3	RightHandIndex2
RightHandIndex4	RightHandIndex3
RightHandThumb1	RightHand
RightHandThumb2	RightHandThumb1
RightHandThumb3	RightHandThumb2
RightHandThumb4	RightHandThumb3
LeftUpLeg	Hips
LeftLeg	LeftUpLeg
LeftFoot	LeftLeg
LeftToeBase	LeftFoot
RightUpLeg	Hips
RightLeg	RightUpLeg
RightFoot	RightLeg
RightToeBase	RightFoot
[BasePosition]
Hips	0	0	0	0	0	0	1
Spine	0	0	0	0	0	0	1
Spine1	0	0	0	0	0	0	1
Spine2	0	0	0	0	0	0	1
Neck	0	0	0	0	0	0	1
Head	0	0	0	0	0	0	1
LeftEye	0	0	0	0	0	0	1
RightEye	0	0	0	0	0	0	1
LeftShoulder	0	0	0	0	0	0	1
LeftArm	0	0	0	0	0	0	1
LeftForeArm	0	0	0	0	0	0	1
LeftHand	0	0	0	0	0	0	1
LeftHandThumb1	0	0	0	0	0	0	1
LeftHandThumb2	0	0	0	0	0	0	1
LeftHandThumb3	0	0	0	0	0	0	1
LeftHandThumb4	0	0	0	0	0	0	1
LeftHandIndex1	0	0	0	0	0	0	1
LeftHandIndex2	0	0	0	0	0	0	1
LeftHandIndex3	0	0	0	0	0	0	1
LeftHandIndex4	0	0	0	0	0	0	1
LeftHandMiddle1	0	0	0	0	0	0	1
LeftHandMiddle2	0	0	0	0	0	0	1
LeftHandMiddle3	0	0	0	0	0	0	1
LeftHandMiddle4	0	0	0	0	0	0	1
LeftHandRing1	0	0	0	0	0	0	1
LeftHandRing2	0	0	0	0	0	0	1
LeftHandRing3	0	0	0	0	0	0	1
LeftHandRing4	0	0	0	0	0	0	1
LeftHandPinky1	0	0	0	0	0	0	1
LeftHandPinky2	0	0	0	0	0	0	1
LeftHandPinky3	0	0	0	0	0	0	1
LeftHandPinky4	0	0	0	0	0	0	1
RightShoulder	0	0	0	0	0	0	1
RightArm	0	0	0	0	0	0	1
RightForeArm	0	0	0	0	0	0	1
RightHand	0	0	0	0	0	0	1
RightHandPinky1	0	0	0	0	0	0	1
RightHandPinky2	0	0	0	0	0	0	1
RightHandPinky3	0	0	0	0	0	0	1
RightHandPinky4	0	0	0	0	0	0	1
RightHandRing1	0	0	0	0	0	0	1
RightHandRing2	0	0	0	0	0	0	1
RightHandRing3	0	0	0	0	0	0	1
RightHandRing4	0	0	0	0	0	0	1
RightHandMiddle1	0	0	0	0	0	0	1
RightHandMiddle2	0	0	0	0	0	0	1
RightHandMiddle3	0	0	0	0	0	0	1
RightHandMiddle4	0	0	0	0	0	0	1
RightHandIndex1	0	0	0	0	0	0	1
RightHandIndex2	0	0	0	0	0	0	1
RightHandIndex3	0	0	0	0	0	0	1
RightHandIndex4	0	0	0	0	0	0	1
RightHandThumb1	0	0	0	0	0	0	1
RightHandThumb2	0	0	0	0	0	0	1
RightHandThumb3	0	0	0	0	0	0	1
RightHandThumb4	0	0	0	0	0	0	1
LeftUpLeg	0	0	0	0	0	0	1
LeftLeg	0	0	0	0	0	0	1
LeftFoot	0	0	0	0	0	0	1
LeftToeBase	0	0	0	0	0	0	1
RightUpLeg	0	0	0	0	0	0	1
RightLeg	0	0	0	0	0	0	1
RightFoot	0	0	0	0	0	0	1
RightToeBase	0	0	0	0	0	0	1
[Hips]
31	1.82737875	621.3467407	451.4495544	37.51074982	1.299820065	-0.558037281	1.0
32	1.947587967	620.4979248	448.6668396	34.12673187	1.350819111	-0.5476911068	1.0
33	2.021571398	619.7943726	444.105072	30.32798576	1.395258665	-0.5434812903	1.0
34	1.964788437	619.2306519	437.8578186	26.21972084	1.411967397	-0.5669625998	1.0
[Spine]
31	0	101.8159943	1.315000057	28.42633057	-0.6911500692	1.234182596	1.0
32	0	101.8159943	1.315000057	27.59109688	-0.8108649254	1.211189985	1.0
33	0	101.8159943	1.315000057	25.94098282	-0.9295879602	1.173233867	1.0
34	0	101.8159943	1.315000057	23.57227135	-1.016263008	1.133140087	1.0
[Spine1]
31	0	100.8349991	-10.00800037	12.83072281	-5.089560727e-05	4.419326069e-05	1.0
32	0	100.8349991	-10.00800037	12.87745571	-5.093290019e-05	4.415137664e-05	1.0
33	0	100.8349991	-10.00800037	12.38367176	-5.05428543e-05	4.459755291e-05	1.0
34	0	100.8349991	-10.00800037	11.4124136	-4.976288983e-05	4.546376658e-05	1.0
[Spine2]
31	0	91	-13.73399925	16.2901783	-7.547837555e-08	3.075800521e-07	1.0
32	0	91	-13.73399925	15.96887779	-7.358877951e-08	3.080497493e-07	1.0
33	0	91	-13.73399925	15.11825275	-6.854329371e-08	3.091934673e-07	1.0
34	0	91	-13.73399925	13.7960186	-6.065421587e-08	3.107973328e-07	1.0
[Neck]
31	0	166.7169952	-25.16200066	-9.676884651	3.696087276e-07	2.928121887e-07	1.0
32	0	166.7169952	-25.16200066	-8.470650673	3.627197316e-07	3.012806928e-07	1.0
33	0	166.7169952	-25.16200066	-7.288588524	3.557748869e-07	3.094249621e-07	1.0
34	0	166.7169952	-25.16200066	-6.141110897	3.488582365e-07	3.171846288e-07	1.0
[Head]
31	0	96.17900085	16.84999847	23.3331852	0.1419641972	-0.1953672171	1.0
32	0	96.17900085	16.84999847	25.18797874	0.16157341	-0.1802063584	1.0
33	0	96.17900085	16.84999847	25.48213959	0.1746090949	-0.1602527499	1.0
34	0	96.17900085	16.84999847	24.40839386	0.1792390347	-0.1361352801	1.0
[LeftEye]
31	30.6760006	64.09500122	92.83599854	0	0	0	1.0
32	30.6760006	64.09500122	92.83599854	0	0	0	1.0
33	30.6760006	64.09500122	92.83599854	0	0	0	1.0
34	30.6760006	64.09500122	92.83599854	0	0	0	1.0
[RightEye]
31	-30.6760006	64.09500122	92.83499908	0	0	0	1.0
32	-30.6760006	64.09500122	92.83499908	0	0	0	1.0
33	-30.6760006	64.09500122	92.83499908	0	0	0	1.0
34	-30.6760006	64.09500122	92.83499908	0	0	0	1.0
[LeftShoulder]
31	45.70400238	109.4599991	-26.28000069	-13.81877041	-20.26267052	38.507061	1.0
32	45.70400238	109.4599991	-26.28000069	-13.24107647	-20.32450676	37.30380249	1.0
33	45.70400238	109.4599991	-26.28000069	-11.73897457	-19.92993164	34.86109161	1.0
34	45.70400238	109.4599991	-26.28000069	-9.575363159	-18.97320747	31.39002037	1.0
[LeftArm]
31	105.923996	-5.24600029	-22.32099915	-64.2795105	-27.54840279	15.82166862	1.0
32	105.923996	-5.24600029	-22.32099915	-63.00811768	-27.57826042	16.03542328	1.0
33	105.923996	-5.24600029	-22.32099915	-60.4177742	-27.95688057	13.81623268	1.0
34	105.923996	-5.24600029	-22.32099915	-56.11752701	-28.18397141	9.595318794	1.0
[LeftForeArm]
31	278.414978	-0.0009999999311	0	-1.991050794e-06	-2.473596096	-0.0001900647039	1.0
32	278.414978	-0.0009999999311	0	-7.809225622e-07	-0.242192179	-0.0002007264702	1.0
33	278.414978	-0.0009999999311	0	-3.398542049e-06	0.113059178	-0.0002032909979	1.0
34	278.414978	-0.0009999999311	0	-2.379317039e-06	-0.03961761296	-0.0002016527142	1.0
[LeftHand]
31	283.2879944	0	0	8.169981956	-3.621943712	-32.32474899	1.0
32	283.2879944	0	0	8.940458298	-3.024953604	-32.63403702	1.0
33	283.2879944	0	0	8.863650322	-2.827339888	-31.37614822	1.0
34	283.2879944	0	0	8.026735306	-2.944917917	-28.75877953	1.0
[LeftHandThumb1]
31	24.6609993	-15.75	26.8239994	14.53445435	7.834272861	-15.50300407	1.0
32	24.6609993	-15.75	26.8239994	13.90435982	7.29583931	-14.89746666	1.0
33	24.6609993	-15.75	26.8239994	12.77478695	6.282337666	-13.75576305	1.0
34	24.6609993	-15.75	26.8239994	11.18117237	4.886674404	-12.14224434	1.0
[LeftHandThumb2]
31	32.29800034	-18.64699936	18.64699936	72.36445618	51.88785172	52.73961639	1.0
32	32.29800034	-18.64699936	18.64699936	66.24903107	51.1436615	47.47993851	1.0
33	32.29800034	-18.64699936	18.64699936	58.77404785	49.70039368	41.11054993	1.0
34	32.29800034	-18.64699936	18.64699936	50.53704834	47.36626434	34.20379257	1.0
[LeftHandThumb3]
31	26.52600098	-15.31499958	15.31499958	13.04191589	22.18248558	21.71736526	1.0
32	26.52600098	-15.31499958	15.31499958	11.30563736	19.52746391	20.76652145	1.0
33	26.52600098	-15.31499958	15.31499958	9.581000328	17.06416321	19.83206177	1.0
34	26.52600098	-15.31499958	15.31499958	7.542896271	14.91775608	18.81566048	1.0
[LeftHandThumb4]
31	19.54599953	-11.28499985	11.28499985	0	0	0	1.0
32	19.54599953	-11.28499985	11.28499985	0	0	0	1.0
33	19.54599953	-11.28499985	11.28499985	0	0	0	1.0
34	19.54599953	-11.28499985	11.28499985	0	0	0	1.0
[LeftHandIndex1]
31	91.09299469	-5.170999527	22.60099792	-6.672891617	21.75940132	-79.44460297	1.0
32	91.09299469	-5.170999527	22.60099792	-6.202511311	20.18691635	-74.7666626	1.0
33	91.09299469	-5.170999527	22.60099792	-5.587721348	18.07989502	-68.58711243	1.0
34	91.09299469	-5.170999527	22.60099792	-4.843363762	15.57527542	-61.19872665	1.0
[LeftHandIndex2]
31	36.76399994	0	0	-1.128567338	3.449828863	-36.2207756	1.0
32	36.76399994	0	0	-0.9598516226	3.207472563	-33.31791687	1.0
33	36.76399994	0	0	-0.7950905561	2.941936255	-30.24687576	1.0
34	36.76399994	0	0	-0.6339324117	2.646141529	-26.93752098	1.0
[LeftHandIndex3]
31	28.83100128	0	0	-0.754116118	2.87029171	-29.43575859	1.0
32	28.83100128	0	0	-0.6772484779	2.730260849	-27.86686134	1.0
33	28.83100128	0	0	-0.5766198635	2.531084299	-25.6758194	1.0
34	28.83100128	0	0	-0.4580416381	2.26673317	-22.83085632	1.0
[LeftHandIndex4]
31	23.92700005	0	0	0	0	0	1.0
32	23.92700005	0	0	0	0	0	1.0
33	23.92700005	0	0	0	0	0	1.0
34	23.92700005	0	0	0	0	0	1.0
[LeftHandMiddle1]
31	95.33399963	0	0	-6.986217499	7.335002422	-79.06963348	1.0
32	95.33399963	0	0	-6.571731091	7.030480385	-75.18574524	1.0
33	95.33399963	0	0	-5.987294674	6.564200401	-69.75712585	1.0
34	95.33399963	0	0	-5.25372982	5.976538658	-63.00001907	1.0
[LeftHandMiddle2]
31	36.98199844	0	0	-1.848229051	4.259808064	-46.89431	1.0
32	36.98199844	0	0	-1.582126498	3.995265961	-43.20225143	1.0
33	36.98199844	0	0	-1.308547139	3.682675838	-39.11568069	1.0
34	36.98199844	0	0	-1.03634727	3.319998264	-34.65517807	1.0
[LeftHandMiddle3]
31	29.50900078	0	0	-0.6732593179	2.72222352	-27.77859497	1.0
32	29.50900078	0	0	-0.5210285783	2.411522388	-24.38080215	1.0
33	29.50900078	0	0	-0.3973231018	2.11770606	-21.25082016	1.0
34	29.50900078	0	0	-0.2961281836	1.836859941	-18.32081795	1.0
[LeftHandMiddle4]
31	28.3390007	0	0	0	0	0	1.0
32	28.3390007	0	0	0	0	0	1.0
33	28.3390007	0	0	0	0	0	1.0
34	28.3390007	0	0	0	0	0	1.0
[LeftHandRing1]
31	91.04499817	-0.4390000105	-18.65100098	-6.461090088	-1.140730143	-72.30471039	1.0
32	91.04499817	-0.4390000105	-18.65100098	-6.004692078	-0.211014241	-68.46799469	1.0
33	91.04499817	-0.4390000105	-18.65100098	-5.396113873	0.8871497512	-63.32191849	1.0
34	91.04499817	-0.4390000105	-18.65100098	-4.674026012	2.027144432	-57.0377388	1.0
[LeftHandRing2]
31	31.54000092	0	0	-0.8931785226	3.103547812	-32.10419083	1.0
32	31.54000092	0	0	-0.7272543311	2.822356462	-28.89633179	1.0
33	31.54000092	0	0	-0.5793767571	2.53627634	-25.73293877	1.0
34	31.54000092	0	0	-0.4476575255	2.242776155	-22.57391357	1.0
[LeftHandRing3]
31	29.37700081	0	0	-0.6969338059	2.766649723	-28.27324677	1.0
32	29.37700081	0	0	-0.5665926933	2.509710789	-25.44355965	1.0
33	29.37700081	0	0	-0.4477772117	2.243028402	-22.57708549	1.0
34	29.37700081	0	0	-0.3405431807	1.965376616	-19.65534973	1.0
[LeftHandRing4]
31	26.47500038	0	0	0	0	0	1.0
32	26.47500038	0	0	0	0	0	1.0
33	26.47500038	0	0	0	0	0	1.0
34	26.47500038	0	0	0	0	0	1.0
[LeftHandPinky1]
31	80.77799988	-4.887000084	-38.06099701	-6.588341236	-14.33055305	-70.27957153	1.0
32	80.77799988	-4.887000084	-38.06099701	-5.943048477	-11.64573383	-65.60337067	1.0
33	80.77799988	-4.887000084	-38.06099701	-5.14783287	-8.449111938	-59.61153412	1.0
34	80.77799988	-4.887000084	-38.06099701	-4.292163849	-5.111626625	-52.63112259	1.0
[LeftHandPinky2]
31	36	0	0	-0.1930811703	1.489749908	-14.76873302	1.0
32	36	0	0	-0.1364660114	1.25593102	-12.40883636	1.0
33	36	0	0	-0.1084453464	1.121921182	-11.06651878	1.0
34	36	0	0	-0.09374891222	1.043321848	-10.28264713	1.0
[LeftHandPinky3]
31	21.14200211	0	0	-1.330859661	3.709743261	-39.45960617	1.0
32	21.14200211	0	0	-1.161066413	3.494787455	-36.76667404	1.0
33	21.14200211	0	0	-0.943744719	3.183082819	-33.03225708	1.0
34	21.14200211	0	0	-0.702757895	2.775004148	-28.37303162	1.0
[LeftHandPinky4]
31	19.75699997	0	0	0	0	0	1.0
32	19.75699997	0	0	0	0	0	1.0
33	19.75699997	0	0	0	0	0	1.0
34	19.75699997	0	0	0	0	0	1.0
[RightShoulder]
31	-45.70000076	109.4620056	-26.28000069	-13.81882572	20.26264191	-38.50706863	1.0
32	-45.70000076	109.4620056	-26.28000069	-13.24112892	20.32448578	-37.30381012	1.0
33	-45.70000076	109.4620056	-26.28000069	-11.73902035	19.92991829	-34.86109924	1.0
34	-45.70000076	109.4620056	-26.28000069	-9.575393677	18.97319794	-31.390028	1.0
[RightArm]
31	-105.9280014	-5.248000145	-22.32099915	-64.27944183	27.54865456	-15.82146263	1.0
32	-105.9280014	-5.248000145	-22.32099915	-63.00809097	27.57850266	-16.03521919	1.0
33	-105.9280014	-5.248000145	-22.32099915	-60.41772461	27.95713425	-13.81603527	1.0
34	-105.9280014	-5.248000145	-22.32099915	-56.11745071	28.18421173	-9.595112801	1.0
[RightForeArm]
31	-278.414978	0	0	2.180342108e-06	2.473399401	-3.480059149e-06	1.0
32	-278.414978	0	0	-1.61871526e-06	0.2419596761	3.833899427e-06	1.0
33	-278.414978	0	0	-1.447130671e-06	-0.1132969335	-3.808623887e-06	1.0
34	-278.414978	0	0	-3.285519142e-06	0.03939115256	-5.451086963e-06	1.0
[RightHand]
31	-283.2879944	0	0.0009999999311	9.395252228	3.366872549	33.04201889	1.0
32	-283.2879944	0	0.0009999999311	10.15799999	2.760310888	33.34739304	1.0
33	-283.2879944	0	0.0009999999311	10.0787468	2.563667536	32.08976364	1.0
34	-283.2879944	0	0.0009999999311	9.24354744	2.69170475	29.47624016	1.0
[RightHandPinky1]
31	-80.76699829	-4.885000229	-38.06000137	-5.675469398	15.48726082	69.46064758	1.0
32	-80.76699829	-4.885000229	-38.06000137	-5.122834682	12.77653503	64.77758789	1.0
33	-80.76699829	-4.885000229	-38.06000137	-4.441282272	9.535318375	58.78903198	1.0
34	-80.76699829	-4.885000229	-38.06000137	-3.710931063	6.131080627	51.8248558	1.0
[RightHandPinky2]
31	-36	0	0.0009999999311	-0.1534489691	-1.183403134	14.79578876	1.0
32	-36	0	0.0009999999311	-0.1084020585	-0.9974065423	12.43188858	1.0
33	-36	0	0.0009999999311	-0.08610250801	-0.8908273578	11.08719826	1.0
34	-36	0	0.0009999999311	-0.07441195846	-0.828309238	10.30190659	1.0
[RightHandPinky3]
31	-21.14200211	0	0	-1.059746623	-2.950022221	39.51314926	1.0
32	-21.14200211	0	0	-0.9246281385	-2.77916503	36.81902695	1.0
33	-21.14200211	0	0	-0.7516584992	-2.531387806	33.08214188	1.0
34	-21.14200211	0	0	-0.5598050356	-2.20696044	28.41864967	1.0
[RightHandPinky4]
31	-19.75699997	0	0	0	0	0	1.0
32	-19.75699997	0	0	0	0	0	1.0
33	-19.75699997	0	0	0	0	0	1.0
34	-19.75699997	0	0	0	0	0	1.0
[RightHandRing1]
31	-91.03599548	-0.4390000105	-18.65100098	-5.497106552	2.308041811	71.55119324	1.0
32	-91.03599548	-0.4390000105	-18.65100098	-5.11826992	1.360479593	67.7171402	1.0
33	-91.03599548	-0.4390000105	-18.65100098	-4.611488342	0.2299496382	62.57775497	1.0
34	-91.03599548	-0.4390000105	-18.65100098	-4.009117603	-0.9618489742	56.30508804	1.0
[RightHandRing2]
31	-31.54000092	0	0	-0.7114220858	-2.468179703	32.15344238	1.0
32	-31.54000092	0	0	-0.5793162584	-2.244612217	28.94262314	1.0
33	-31.54000092	0	0	-0.4615534842	-2.017140865	25.77573395	1.0
34	-31.54000092	0	0	-0.3566478491	-1.78376925	22.61270332	1.0
[RightHandRing3]
31	-29.37700081	0	0	-0.5551732779	-2.20032239	28.31885719	1.0
32	-29.37700081	0	0	-0.4513677061	-1.99602592	25.48597336	1.0
33	-29.37700081	0	0	-0.3567461967	-1.783965588	22.615839	1.0
34	-29.37700081	0	0	-0.2713283598	-1.563172698	19.68998718	1.0
[RightHandRing4]
31	-26.47500038	0	0	0	0	0	1.0
32	-26.47500038	0	0	0	0	0	1.0
33	-26.47500038	0	0	0	0	0	1.0
34	-26.47500038	0	0	0	0	0	1.0
[RightHandMiddle1]
31	-95.32500458	0	0	-5.883470535	-6.148659706	78.33383942	1.0
32	-95.32500458	0	0	-5.549558163	-5.852766514	74.45858002	1.0
33	-95.32500458	0	0	-5.076180935	-5.408092499	69.04013824	1.0
34	-95.32500458	0	0	-4.47672224	-4.861973286	62.29282379	1.0
[RightHandMiddle2]
31	-36.98199844	0	0	-1.47132659	-3.387168169	46.94885254	1.0
32	-36.98199844	0	0	-1.259665132	-3.17693758	43.25682068	1.0
33	-36.98199844	0	0	-1.041999459	-2.928506851	39.16919327	1.0
34	-36.98199844	0	0	-0.8253706098	-2.640226603	34.70632172	1.0
[RightHandMiddle3]
31	-29.50900078	0	0	-0.5363060832	-2.167008877	27.82373047	1.0
32	-29.50900078	0	0	-0.415086776	-1.920003057	24.42194366	1.0
33	-29.50900078	0	0	-0.316559732	-1.686357856	21.28779411	1.0
34	-29.50900078	0	0	-0.2359525114	-1.462993979	18.35348129	1.0
[RightHandMiddle4]
31	-28.3390007	0	0.0009999999311	0	0	0	1.0
32	-28.3390007	0	0.0009999999311	0	0	0	1.0
33	-28.3390007	0	0.0009999999311	0	0	0	1.0
34	-28.3390007	0	0.0009999999311	0	0	0	1.0
[RightHandIndex1]
31	-91.08300018	-5.167999744	22.60099792	-5.567538738	-20.57244873	78.73027802	1.0
32	-91.08300018	-5.167999744	22.60099792	-5.19849968	-19.01040459	74.08422089	1.0
33	-91.08300018	-5.167999744	22.60099792	-4.712674141	-16.92967796	67.93663788	1.0
34	-91.08300018	-5.167999744	22.60099792	-4.114355087	-14.47404861	60.57260132	1.0
[RightHandIndex2]
31	-36.76399994	0	0	-0.898776412	-2.743446589	36.2728653	1.0
32	-36.76399994	0	0	-0.7644864321	-2.550783396	33.36808014	1.0
33	-36.76399994	0	0	-0.6333318949	-2.339672804	30.29443741	1.0
34	-36.76399994	0	0	-0.5050051808	-2.104504347	26.98165703	1.0
[RightHandIndex3]
31	-28.83100128	0	0	-0.6006905437	-2.282714844	29.48261642	1.0
32	-28.83100128	0	0	-0.539485395	-2.171386957	27.91210365	1.0
33	-28.83100128	0	0	-0.4593620896	-2.013039112	25.71858406	1.0
34	-28.83100128	0	0	-0.3649204075	-1.802826881	22.87001419	1.0
[RightHandIndex4]
31	-23.92700005	0	0	0	0	0	1.0
32	-23.92700005	0	0	0	0	0	1.0
33	-23.92700005	0	0	0	0	0	1.0
34	-23.92700005	0	0	0	0	0	1.0
[RightHandThumb1]
31	-24.64799881	-15.72700024	26.82600021	13.26796341	-5.910498619	16.6553669	1.0
32	-24.64799881	-15.72700024	26.82600021	12.65273666	-5.364945412	16.02188492	1.0
33	-24.64799881	-15.72700024	26.82600021	11.55004978	-4.340397835	14.82883549	1.0
34	-24.64799881	-15.72700024	26.82600021	9.99160862	-2.930492401	13.14305687	1.0
[RightHandThumb2]
31	-32.29800034	-18.64699936	18.64699936	75.11497498	-53.19093323	-55.57665253	1.0
32	-32.29800034	-18.64699936	18.64699936	68.76668549	-52.54976273	-50.10406876	1.0
33	-32.29800034	-18.64699936	18.64699936	60.98532486	-51.21296692	-43.4535408	1.0
34	-32.29800034	-18.64699936	18.64699936	52.4057579	-48.97124863	-36.2339592	1.0
[RightHandThumb3]
31	-26.52600098	-15.31399918	15.31399918	17.50421524	-27.07338524	-24.65639687	1.0
32	-26.52600098	-15.31399918	15.31399918	15.56795502	-24.49157715	-23.51992416	1.0
33	-26.52600098	-15.31399918	15.31399918	13.67051792	-22.09594345	-22.41319656	1.0
34	-26.52600098	-15.31399918	15.31399918	11.47948265	-20.02273369	-21.20633316	1.0
[RightHandThumb4]
31	-19.54599953	-11.28499985	11.28499985	0	0	0	1.0
32	-19.54599953	-11.28499985	11.28499985	0	0	0	1.0
33	-19.54599953	-11.28499985	11.28499985	0	0	0	1.0
34	-19.54599953	-11.28499985	11.28499985	0	0	0	1.0
[LeftUpLeg]
31	82.07800293	-67.51699829	-15.99599934	-46.06197739	0.4281818867	8.316062927	1.0
32	82.07800293	-67.51699829	-15.99599934	-41.56605148	0.6439148784	8.233465195	1.0
33	82.07800293	-67.51699829	-15.99599934	-37.11948776	0.7591945529	8.070602417	1.0
34	82.07800293	-67.51699829	-15.99599934	-34.00643158	0.8826978803	7.760223866	1.0
[LeftLeg]
31	0	-443.7049866	2.845999956	93.31249237	10.12894249	-7.819788456	1.0
32	0	-443.7049866	2.845999956	92.69168091	9.660614967	-7.564067364	1.0
33	0	-443.7049866	2.845999956	92.50414276	9.051845551	-7.306050777	1.0
34	0	-443.7049866	2.845999956	94.09686279	8.478870392	-7.361505985	1.0
[LeftFoot]
31	0	-444.2789917	-29.8219986	-47.47859573	1.616654038	8.632721901	1.0
32	0	-444.2789917	-29.8219986	-51.66753769	0.6392860413	9.95612812	1.0
33	0	-444.2789917	-29.8219986	-54.84478378	0.003689898644	10.82905102	1.0
34	0	-444.2789917	-29.8219986	-52.93238449	0.2232611328	10.69916821	1.0
[LeftToeBase]
31	0	-87.28699493	107.1060028	-47.14113235	-4.187972635e-08	3.664011103e-07	1.0
32	0	-87.28699493	107.1060028	-43.83673859	1.216738497e-07	1.775305577e-06	1.0
33	0	-87.28699493	107.1060028	-41.19511414	5.666839797e-07	-1.476668785e-06	1.0
34	0	-87.28699493	107.1060028	-42.9261322	-2.325798789e-07	-2.649175713e-06	1.0
[RightUpLeg]
31	-82.07800293	-67.51699829	-15.99599934	-120.7803345	-4.929472446	-7.673121452	1.0
32	-82.07800293	-67.51699829	-15.99599934	-117.9032288	-4.735168934	-6.637968063	1.0
33	-82.07800293	-67.51699829	-15.99599934	-114.6400909	-4.479418278	-5.608830929	1.0
34	-82.07800293	-67.51699829	-15.99599934	-111.0787277	-4.104193687	-4.605541229	1.0
[RightLeg]
31	0	-443.7049866	2.861999989	82.8600235	-9.286946297	1.851543307	1.0
32	0	-443.7049866	2.861999989	83.54019165	-9.027219772	1.088456392	1.0
33	0	-443.7049866	2.861999989	84.03400421	-8.539151192	0.5836279988	1.0
34	0	-443.7049866	2.861999989	84.31082916	-7.801642895	0.3007065952	1.0
[RightFoot]
31	0	-444.2770081	-29.83799934	0.4446611702	-2.821552992	0.1807675362	1.0
32	0	-444.2770081	-29.83799934	0.4190598726	-1.27454412	-0.4089318514	1.0
33	0	-444.2770081	-29.83799934	0.5286364555	-0.1094896272	-0.9187991619	1.0
34	0	-444.2770081	-29.83799934	0.7985714078	0.6303035617	-1.283259153	1.0
[RightToeBase]
31	0	-87.28699493	107.1060028	-1.515573604e-05	-2.909377805e-08	-1.999551955e-07	1.0
32	0	-87.28699493	107.1060028	-1.515573604e-05	-2.909377805e-08	-1.999551955e-07	1.0
33	0	-87.28699493	107.1060028	-1.515573604e-05	-2.909377805e-08	-1.999551955e-07	1.0
34	0	-87.28699493	107.1060028	-1.515573604e-05	-2.909377805e-08	-1.999551955e-07	1.0
[EndOfFile]
